<svg xmlns="http://www.w3.org/2000/svg" width="180.855" height="118.957" viewBox="0 0 180.855 118.957">
  <g id="empty" transform="translate(0 0)">
    <path id="Path_1" data-name="Path 1" d="M452.562,328.209H292.641a4.122,4.122,0,0,1-4.118-4.118V225.48a3.02,3.02,0,0,1,3.017-3.017H453.611a3.072,3.072,0,0,1,3.069,3.069v98.559A4.122,4.122,0,0,1,452.562,328.209Z" transform="translate(-275.825 -219.767)" fill="#f2f2f2"/>
    <path id="Path_2" data-name="Path 2" d="M465.024,347.707H315.982a3.847,3.847,0,0,1-3.962-3.71V258.125a2.852,2.852,0,0,1,2.936-2.752H466a2.9,2.9,0,0,1,2.985,2.8V344A3.847,3.847,0,0,1,465.024,347.707Z" transform="translate(-293.458 -244.464)" fill="#fff"/>
    <path id="Path_3" data-name="Path 3" d="M456.449,217.884H288.292v-2.1a4.136,4.136,0,0,1,4.133-4.13H452.317a4.136,4.136,0,0,1,4.133,4.13Z" transform="translate(-275.651 -211.658)" fill="#3f3d56"/>
    <circle id="Ellipse_2" data-name="Ellipse 2" cx="1.069" cy="1.069" r="1.069" transform="translate(19.082 2.051)" fill="#fff"/>
    <circle id="Ellipse_3" data-name="Ellipse 3" cx="1.069" cy="1.069" r="1.069" transform="translate(23.139 2.051)" fill="#fff"/>
    <circle id="Ellipse_4" data-name="Ellipse 4" cx="1.069" cy="1.069" r="1.069" transform="translate(27.197 2.051)" fill="#fff"/>
    <rect id="Rectangle_2" data-name="Rectangle 2" width="80.854" height="10.238" rx="5.119" transform="translate(63.346 34.034)" fill="#e6e6e6"/>
    <rect id="Rectangle_3" data-name="Rectangle 3" width="80.854" height="10.238" rx="5.119" transform="translate(63.346 50.976)" fill="#e6e6e6"/>
    <rect id="Rectangle_4" data-name="Rectangle 4" width="80.854" height="10.238" rx="5.119" transform="translate(63.346 67.917)" fill="#e6e6e6"/>
    <circle id="Ellipse_5" data-name="Ellipse 5" cx="5.241" cy="5.241" r="5.241" transform="translate(49.121 50.854)" fill="#e6e6e6"/>
    <circle id="Ellipse_6" data-name="Ellipse 6" cx="5.241" cy="5.241" r="5.241" transform="translate(49.121 67.796)" fill="#e6e6e6"/>
    <circle id="Ellipse_7" data-name="Ellipse 7" cx="5.241" cy="5.241" r="5.241" transform="translate(49.121 33.913)" fill="#395ad2"/>
    <path id="Path_7" data-name="Path 7" d="M403,367.957a2.509,2.509,0,0,0-2.742,2.7l-8.162,3.592,3.893,2.513,7.154-3.8a2.523,2.523,0,0,0-.144-5.009Z" transform="translate(-353.548 -328.944)" fill="#a0616a"/>
    <circle id="Ellipse_8" data-name="Ellipse 8" cx="6.129" cy="6.129" r="6.129" transform="translate(10.395 22.274)" fill="#a0616a"/>
    <path id="Path_8" data-name="Path 8" d="M110.665,428.543h3.059l1.455-11.8h-4.515Z" transform="translate(-83.049 -312.744)" fill="#a0616a"/>
    <path id="Path_9" data-name="Path 9" d="M345.178,671.685H351.2a3.84,3.84,0,0,1,3.84,3.84v.125h-9.865Z" transform="translate(-318.341 -556.885)" fill="#2f2e41"/>
    <path id="Path_10" data-name="Path 10" d="M59.665,428.543h3.059l1.455-11.8H59.665Z" transform="translate(-44.776 -312.744)" fill="#a0616a"/>
    <path id="Path_11" data-name="Path 11" d="M294.178,671.685H300.2a3.84,3.84,0,0,1,3.84,3.84v.125h-9.865Z" transform="translate(-280.069 -556.885)" fill="#2f2e41"/>
    <path id="Path_12" data-name="Path 12" d="M293.333,527.125a1.124,1.124,0,0,1-.38-.839l-.144-44.221,15.977-.616.117,0,2.627,26.525.329,16.9a1.119,1.119,0,0,1-.991,1.137l-3.878.456a1.122,1.122,0,0,1-1.253-1.072l-.691-17.952-3.353-11.176a.374.374,0,0,0-.713.138l-1.3,29.388a1.121,1.121,0,0,1-.984,1.057l-4.478.551a1.12,1.12,0,0,1-.88-.272Z" transform="translate(-279.041 -414.12)" fill="#2f2e41"/>
    <path id="Path_13" data-name="Path 13" d="M275.588,391.093l-4.733-19.223c-1.475-5.99,1.894-12.021,7.511-13.444a9.532,9.532,0,0,1,7.763,1.384,11.013,11.013,0,0,1,4.662,7.684l3.092,22.757a1.123,1.123,0,0,1-1.083,1.274l-16.091.422h-.029A1.13,1.13,0,0,1,275.588,391.093Z" transform="translate(-262.305 -321.578)" fill="#395ad2"/>
    <path id="Path_14" data-name="Path 14" d="M327.411,378.5l-12-5.829a4.031,4.031,0,1,1,4.1-6.907l9.71,6.934,10.482-4.174a1.119,1.119,0,0,1,1.231.271l1.414,1.492a1.123,1.123,0,0,1-.2,1.711l-9.384,6.156a5.461,5.461,0,0,1-5.356.345Z" transform="translate(-294.299 -326.742)" fill="#395ad2"/>
    <path id="Path_15" data-name="Path 15" d="M279.653,308.72a3.222,3.222,0,0,1-1.4-.288c-.2-.086-.4-.157-.593-.243a5.555,5.555,0,0,1-2.9-4.963,7.563,7.563,0,0,1,2.336-5.5,8.412,8.412,0,0,1,5.1-2.2,5.427,5.427,0,0,1,5.326,2.288,2.207,2.207,0,0,1,.327,1.717,1.124,1.124,0,0,1-.271.476c-.5.5-.989.125-1.493.091a1.7,1.7,0,0,0-1.541,1.346,4.606,4.606,0,0,0,.055,2.343l0,.014a1.285,1.285,0,0,1-1.138,1.566,5.984,5.984,0,0,1-1.84,0,1.037,1.037,0,0,0-1.371.316,1.9,1.9,0,0,0-.173.571c-.244,1.271-.188,1.2-.433,2.468Z" transform="translate(-265.499 -274.572)" fill="#2f2e41"/>
    <path id="Path_16" data-name="Path 16" d="M273.7,493.246a2.509,2.509,0,0,0-.892-3.743l1.15-8.843-4.165,2.031-.453,8.086a2.523,2.523,0,0,0,4.36,2.469Z" transform="translate(-261.284 -413.53)" fill="#a0616a"/>
    <path id="Path_17" data-name="Path 17" d="M272.178,409.012a1.144,1.144,0,0,1-.234.055l-4.2.532a1.123,1.123,0,0,1-1.264-1.115l.033-29.353a3.56,3.56,0,0,1,3.035-3.5h0a3.541,3.541,0,0,1,4.03,3.845l-1.221,12.649.572,15.788A1.117,1.117,0,0,1,272.178,409.012Z" transform="translate(-259.28 -334.684)" fill="#395ad2"/>
    <path id="Path_18" data-name="Path 18" d="M289.295,686.841H237.888a.25.25,0,1,1,0-.5h51.407a.25.25,0,1,1,0,.5Z" transform="translate(-237.638 -567.884)" fill="#ccc"/>
  </g>
</svg>
